<svg width="241" height="77" viewBox="0 0 241 77" fill="none" xmlns="http://www.w3.org/2000/svg">
<path d="M14.334 58V16" stroke="black" stroke-width="1.5" stroke-linecap="round"/>
<path d="M74 58V16" stroke="black" stroke-width="1.5" stroke-linecap="round"/>
<path d="M71.667 37.6667L71.667 1.66675" stroke="black" stroke-width="1.5" stroke-linecap="round"/>
<path d="M81.3333 24.6667L44.6839 1L8 24.6667" stroke="black" stroke-width="1.5" stroke-linecap="round"/>
<path d="M1.6662 31.9998L32.9766 11.6666" stroke="black" stroke-width="1.5" stroke-linecap="round"/>
<path d="M42.3349 7.84917C42.3917 7.73726 42.5066 7.66675 42.6321 7.66675H46.7026C46.8281 7.66675 46.943 7.73726 46.9998 7.84918L63.7548 40.8492C63.8674 41.0709 63.7063 41.3334 63.4576 41.3334H25.8771C25.6284 41.3334 25.4673 41.0709 25.5798 40.8492L42.3349 7.84917Z" fill="url(#paint0_linear_48_42)"/>
<path d="M44.6667 6.0531V1.16663M42.2916 7.99996H47.0418C47.2028 7.99996 47.3333 7.868 47.3333 7.70523C47.3333 7.70213 47.3323 7.69913 47.3303 7.69674L46.8452 7.09737C45.719 5.70591 43.6143 5.70591 42.4881 7.09736L42.003 7.69674C42.0011 7.69913 42 7.70213 42 7.70523C42 7.868 42.1305 7.99996 42.2916 7.99996Z" stroke="black" stroke-width="1.5"/>
<path fill-rule="evenodd" clip-rule="evenodd" d="M53.6138 34.8537C53.7259 34.546 54.0667 34.3877 54.3741 34.4998L58.0783 35.8516C58.6989 36.0786 58.5309 37.0016 57.8751 37.0016C57.8074 37.0016 57.7388 36.9898 57.6718 36.9661L53.9673 35.6137C53.6598 35.5017 53.5017 35.1614 53.6138 34.8537ZM56.217 29.708C56.3293 29.4003 56.6696 29.2421 56.9773 29.3542L59.4025 30.2394C60.0225 30.4656 59.8562 31.3888 59.199 31.3888C59.1316 31.3888 59.0629 31.3777 58.9957 31.3527L56.5705 30.4681C56.263 30.3553 56.1048 30.0152 56.217 29.708ZM58.5885 24.4776C58.7009 24.1698 59.0412 24.0111 59.3488 24.1238L60.9583 24.7112C61.5795 24.9378 61.4108 25.8612 60.7551 25.8612C60.6874 25.8612 60.619 25.8493 60.5518 25.8245L58.9424 25.2371C58.6346 25.1249 58.4762 24.7847 58.5885 24.4776ZM61.0677 39.488C61.4884 39.4634 62.1715 40.368 62.61 40.8441L61.2608 53.8144H27.9905L26.6409 40.8441C27.0755 40.3734 27.7645 39.4647 28.1832 39.488C28.3397 39.4973 28.6875 39.6344 29.2572 40.4535C29.8982 41.3824 30.6009 41.859 31.3454 41.8701C32.1009 41.8813 32.8366 41.4104 33.5295 40.4685C33.8275 40.0445 34.2671 39.5303 34.7026 39.5303C35.1315 39.5303 35.5764 40.0349 35.8721 40.4554C37.1838 42.3313 38.7769 42.2998 40.1387 40.4747C40.4403 40.0705 40.8548 39.5702 41.3069 39.5702C41.7304 39.5702 42.1687 40.0318 42.47 40.4343C43.7677 42.3648 45.4829 42.362 46.7808 40.4349C47.0821 40.0324 47.5207 39.5702 47.9441 39.5702C48.4058 39.5702 48.808 40.077 49.1125 40.4747C50.5096 42.3002 52.0653 42.3335 53.377 40.4579C53.6732 40.0345 54.1215 39.5301 54.5493 39.5304C54.9717 39.5307 55.4379 40.0463 55.7212 40.4686C56.4143 41.4105 57.1494 41.8858 57.9054 41.8702C58.6499 41.8591 59.3526 41.3825 59.9927 40.4554C60.5635 39.6343 60.9113 39.4973 61.0677 39.488ZM30.7623 35.3153C30.3359 36.9533 30.6319 38.9806 31.4265 40.6809C31.8427 40.6423 32.2742 40.1726 32.5704 39.7708C33.2325 38.8257 33.9489 38.3454 34.6996 38.3448C35.4505 38.3445 36.1793 38.8244 36.844 39.7758C37.1234 40.1782 37.5427 40.6567 37.9641 40.6653C38.4002 40.6698 38.8803 40.1826 39.1885 39.7651C39.8415 38.8544 40.5497 38.3897 41.2939 38.3846C42.0023 38.3823 42.6781 38.7857 43.3202 39.5957C43.7168 37.0451 42.5699 33.8123 40.5865 32.2017C39.6351 31.4292 38.6463 31.1564 37.8022 31.4336C37.0381 31.684 36.4339 32.3848 36.101 33.4059C35.9704 33.7943 35.5094 33.9371 35.1811 33.6962C34.2782 33.0171 33.3439 32.7866 32.5499 33.0471C31.7059 33.3244 31.0709 34.1298 30.7623 35.3153ZM40.0279 30.4214V30.4787C41.9397 31.2992 43.3782 33.3507 44.0738 35.4705C44.6609 37.259 44.7393 39.1042 44.3066 40.6161C44.9346 40.9278 45.4511 40.2397 45.8026 39.7633C46.8527 38.3398 48.1653 37.8782 49.43 39.0382C49.6369 38.2714 49.8632 37.4951 50.1088 36.7133V30.4214C50.1088 28.3369 48.7917 26.44 46.8312 25.7017C46.6002 25.6151 46.4471 25.394 46.4471 25.1473V22.6118H43.6897V25.1473C43.6897 25.394 43.5369 25.6151 43.3059 25.7017C41.345 26.4406 40.0279 28.3369 40.0279 30.4214ZM42.821 19.1856H47.3157V21.4265H42.821V19.1856ZM57.6004 23.4005C54.5712 27.698 51.8272 34.3827 50.3695 40.1308C50.6457 40.4249 50.9719 40.6722 51.2868 40.6653C51.7082 40.6566 52.1275 40.1782 52.4049 39.7782C53.0749 38.8269 53.7954 38.3447 54.5484 38.3447C55.3207 38.3447 56.0006 38.8245 56.6806 39.7707C56.9841 40.1928 57.4563 40.6881 57.8878 40.6845C58.1524 40.6802 58.4182 40.487 58.6491 40.2428C59.0782 39.2374 59.491 38.1939 59.8757 37.1386C61.4492 32.829 62.4741 28.619 62.7615 25.2835C63.0667 21.747 62.4519 20.2226 61.7751 19.9753C61.0984 19.7282 59.6459 20.4981 57.6004 23.4005ZM63.943 25.3859C64.2648 21.6556 63.6556 19.3999 62.1817 18.8616C60.7075 18.324 58.7882 19.6571 56.6312 22.7177C54.741 25.3984 52.8578 29.13 51.2944 33.2782V30.4214C51.2944 27.9849 49.8392 25.7566 47.6327 24.7517V22.6118C48.1244 22.6118 48.5013 22.2333 48.5013 21.7614V18.851C48.5013 18.382 48.1194 18 47.6502 18H42.4862C42.017 18 41.6351 18.3819 41.6351 18.851V21.7614C41.6351 22.2331 42.0121 22.6118 42.5034 22.6118V24.7517C40.3761 25.7211 38.9472 27.8273 38.8479 30.161C37.4511 30.0151 36.2298 30.6904 35.4776 31.9284C33.8052 29.3324 31.4842 28.3382 28.7659 29.857C28.4801 30.0165 28.3782 30.3777 28.5379 30.6637C28.6978 30.9496 29.059 31.0512 29.3449 30.8917C31.1717 29.8715 32.666 30.2747 33.946 31.8318C33.3417 31.7091 32.744 31.7359 32.1803 31.9209C30.9395 32.3277 30.0284 33.4272 29.6146 35.0164C29.2995 36.2268 29.3033 37.6192 29.6161 39.0214C29.1642 38.5623 28.7193 38.3312 28.2503 38.3038C27.0638 38.236 26.3118 39.528 25.5133 40.3048C25.3305 40.4824 25.282 40.7576 25.3931 40.9869L27.0842 54.6654C27.1833 54.8704 27.3906 55 27.6182 55H61.6326C61.8602 55 62.0676 54.8704 62.1666 54.6654L63.8578 40.9869C63.9688 40.7576 63.9203 40.4823 63.7376 40.3048C62.8661 39.4571 62.0439 38.0033 60.688 38.3549C62.4227 33.7992 63.6228 29.0973 63.943 25.3859Z" fill="black"/>
<path fill-rule="evenodd" clip-rule="evenodd" d="M136.618 48.0415C136.618 51.2842 137.32 53.9552 138.934 55.8385L138.94 55.8453C140.545 57.691 142.695 58.5927 145.257 58.5927C146.299 58.5927 147.262 58.457 148.121 58.1533C148.88 57.8917 149.568 57.5444 150.171 57.1011L150.38 58.2571H155.07V30.2429H149.603V38.5078C149.151 38.2431 148.663 38.0275 148.143 37.8585C147.287 37.5577 146.328 37.4232 145.29 37.4232C142.716 37.4232 140.556 38.3563 138.935 40.2433L138.934 40.2444C137.32 42.1278 136.618 44.7988 136.618 48.0415ZM151.061 41.3309C151.058 41.2878 151.054 41.2418 151.05 41.1929C151.026 40.9148 150.985 40.5418 150.929 40.0738L150.927 40.056C150.911 39.8475 150.898 39.6549 150.888 39.4781C150.869 39.1615 150.86 38.8956 150.86 38.6803C150.86 39.0158 150.883 39.4744 150.927 40.056C150.994 40.6152 151.039 41.0401 151.061 41.3309ZM145.727 53.6291C144.476 53.6291 143.687 53.1981 143.148 52.4085C142.556 51.5084 142.186 50.1224 142.186 48.1086C142.186 46.1227 142.554 44.6939 143.168 43.7104C143.728 42.8249 144.51 42.3868 145.693 42.3868C147.442 42.3868 148.29 42.9044 148.714 43.597L148.719 43.606C149.28 44.5057 149.637 45.9448 149.637 48.075V48.6119C149.637 50.595 149.261 51.8536 148.711 52.5919L148.708 52.5955C148.284 53.1701 147.431 53.6291 145.727 53.6291Z" fill="#E47131"/>
<path fill-rule="evenodd" clip-rule="evenodd" d="M132.853 55.7287C133.718 54.7837 134.359 53.657 134.788 52.3717C135.244 51.0527 135.459 49.5809 135.459 47.9744C135.459 45.8427 135.077 43.9557 134.247 42.3684C133.454 40.7863 132.32 39.5489 130.845 38.7027C129.396 37.8365 127.738 37.4232 125.914 37.4232C124.012 37.4232 122.298 37.8316 120.821 38.7002C119.337 39.5499 118.209 40.7959 117.436 42.3905C116.66 43.9717 116.303 45.8501 116.303 47.9744C116.303 49.5836 116.519 51.0578 116.976 52.3784L116.981 52.3923L116.986 52.4061C117.461 53.6813 118.122 54.7981 118.982 55.7357C119.842 56.6741 120.864 57.3945 122.037 57.8898L122.048 57.8944L122.059 57.8989C123.227 58.3662 124.483 58.5927 125.814 58.5927C127.222 58.5927 128.532 58.3702 129.728 57.9023L129.741 57.8971C130.959 57.4047 132.003 56.6827 132.853 55.7287ZM121.87 47.9744C121.87 49.2735 122.035 50.3562 122.335 51.2444C122.64 52.0633 123.079 52.6339 123.625 53.0245C124.146 53.3964 124.868 53.6291 125.881 53.6291C126.894 53.6291 127.616 53.3964 128.136 53.0245C128.68 52.636 129.107 52.0693 129.391 51.2522L129.393 51.2449L129.396 51.2376C129.716 50.3539 129.892 49.2742 129.892 47.9744C129.892 46.6474 129.714 45.5877 129.402 44.7615C129.1 43.962 128.666 43.4115 128.123 43.0389L128.106 43.0271L128.089 43.0149C127.601 42.6565 126.891 42.4204 125.847 42.4204C124.31 42.4204 123.425 42.9069 122.892 43.6857C122.259 44.6095 121.87 45.994 121.87 47.9744Z" fill="#E47131"/>
<path fill-rule="evenodd" clip-rule="evenodd" d="M112.538 55.7286C111.688 56.6826 110.644 57.4047 109.425 57.8971L109.412 57.9024C108.217 58.3702 106.906 58.5927 105.498 58.5927C104.168 58.5927 102.912 58.3662 101.743 57.8989L101.732 57.8944L101.721 57.8898C100.548 57.3945 99.5266 56.6741 98.6664 55.7357C97.807 54.7981 97.1454 53.6813 96.6703 52.4061L96.6652 52.3923L96.6604 52.3784C96.2033 51.0578 95.9873 49.5836 95.9873 47.9744C95.9873 45.85 96.3444 43.9715 97.1212 42.3903C97.8935 40.7957 99.0221 39.5499 100.506 38.7003C101.983 37.8316 103.697 37.4232 105.599 37.4232C107.423 37.4232 109.08 37.8365 110.529 38.7027C112.004 39.5489 113.138 40.7863 113.932 42.3684C114.762 43.9557 115.144 45.8427 115.144 47.9744C115.144 49.5809 114.928 51.0528 114.473 52.3717C114.044 53.6569 113.402 54.7836 112.538 55.7286ZM102.019 51.2445C101.719 50.3562 101.555 49.2735 101.555 47.9744C101.555 45.994 101.943 44.6095 102.576 43.6857C103.11 42.9069 103.994 42.4204 105.532 42.4204C106.575 42.4204 107.286 42.6565 107.773 43.0149L107.79 43.0271L107.807 43.0389C108.351 43.4115 108.785 43.962 109.087 44.7615C109.399 45.5877 109.576 46.6474 109.576 47.9744C109.576 49.2742 109.4 50.3539 109.081 51.2376L109.078 51.2449L109.075 51.2522C108.791 52.0693 108.365 52.636 107.821 53.0245C107.3 53.3964 106.579 53.6291 105.565 53.6291C104.552 53.6291 103.831 53.3964 103.31 53.0245C102.763 52.6339 102.325 52.0633 102.019 51.2445Z" fill="#E47131"/>
<path fill-rule="evenodd" clip-rule="evenodd" d="M95.8998 36.9513H85.5321V42.9258H95.2623V48.0908H85.5321V58.2572H79.998V31.7864H95.8998V36.9513Z" fill="#E47131"/>
<path d="M231.043 38.6803C232.586 38.6803 233.906 39.0158 235.002 39.6869C236.12 40.3579 236.97 41.3086 237.552 42.5388C238.156 43.7467 238.458 45.1671 238.458 46.8V48.5783H226.144C226.189 50.6138 226.703 52.1684 227.688 53.2421C228.694 54.2934 230.092 54.8191 231.882 54.8191C233.022 54.8191 234.029 54.7184 234.901 54.5171C235.796 54.2934 236.713 53.9803 237.653 53.5776V56.1612C236.736 56.5638 235.83 56.8546 234.935 57.0336C234.04 57.2349 232.978 57.3355 231.747 57.3355C230.047 57.3355 228.538 56.9888 227.218 56.2954C225.92 55.602 224.903 54.573 224.165 53.2086C223.449 51.8217 223.091 50.1329 223.091 48.1421C223.091 46.1737 223.415 44.4849 224.064 43.0757C224.735 41.6665 225.663 40.5816 226.849 39.8211C228.057 39.0606 229.455 38.6803 231.043 38.6803ZM231.009 41.0961C229.6 41.0961 228.482 41.5546 227.654 42.4717C226.849 43.3665 226.368 44.6191 226.211 46.2296H235.371C235.371 45.2007 235.214 44.3059 234.901 43.5454C234.588 42.7849 234.107 42.1921 233.459 41.7671C232.832 41.3198 232.016 41.0961 231.009 41.0961Z" fill="black"/>
<path d="M219.282 38.6803C219.617 38.6803 219.975 38.7027 220.355 38.7474C220.758 38.7698 221.105 38.8145 221.396 38.8816L221.026 41.5994C220.736 41.5323 220.411 41.4763 220.053 41.4316C219.718 41.3869 219.394 41.3645 219.08 41.3645C218.387 41.3645 217.727 41.5099 217.101 41.8007C216.474 42.0915 215.915 42.5053 215.423 43.0421C214.931 43.5566 214.54 44.1829 214.249 44.9211C213.98 45.6592 213.846 46.4869 213.846 47.404V57H210.894V39.0158H213.309L213.645 42.304H213.779C214.159 41.6329 214.618 41.029 215.155 40.4921C215.692 39.9329 216.307 39.4967 217 39.1836C217.694 38.8481 218.454 38.6803 219.282 38.6803Z" fill="black"/>
<path d="M206.213 47.9744C206.213 49.473 206.012 50.804 205.609 51.9671C205.229 53.1079 204.67 54.0809 203.932 54.8862C203.216 55.6915 202.332 56.3066 201.281 56.7316C200.252 57.1342 199.1 57.3355 197.825 57.3355C196.64 57.3355 195.544 57.1342 194.537 56.7316C193.53 56.3066 192.658 55.6915 191.92 54.8862C191.182 54.0809 190.6 53.1079 190.175 51.9671C189.773 50.804 189.571 49.473 189.571 47.9744C189.571 45.9836 189.907 44.3059 190.578 42.9415C191.249 41.5546 192.211 40.5033 193.463 39.7875C194.716 39.0494 196.204 38.6803 197.926 38.6803C199.559 38.6803 200.99 39.0494 202.221 39.7875C203.473 40.5033 204.446 41.5546 205.14 42.9415C205.855 44.3059 206.213 45.9836 206.213 47.9744ZM192.625 47.9744C192.625 49.3836 192.804 50.6138 193.161 51.6651C193.542 52.6941 194.123 53.4882 194.906 54.0474C195.689 54.6066 196.684 54.8862 197.892 54.8862C199.1 54.8862 200.096 54.6066 200.879 54.0474C201.661 53.4882 202.232 52.6941 202.59 51.6651C202.97 50.6138 203.16 49.3836 203.16 47.9744C203.16 46.5428 202.97 45.3237 202.59 44.3171C202.209 43.3106 201.628 42.5388 200.845 42.002C200.084 41.4428 199.089 41.1632 197.859 41.1632C196.025 41.1632 194.694 41.7671 193.866 42.975C193.038 44.1829 192.625 45.8494 192.625 47.9744Z" fill="black"/>
<path d="M184.461 54.9198C184.908 54.9198 185.367 54.8862 185.836 54.8191C186.306 54.7297 186.686 54.6402 186.977 54.5507V56.7987C186.664 56.9553 186.217 57.0783 185.635 57.1678C185.053 57.2797 184.494 57.3356 183.957 57.3356C183.018 57.3356 182.146 57.179 181.34 56.8659C180.557 56.5303 179.92 55.9599 179.428 55.1547C178.936 54.3494 178.69 53.2198 178.69 51.7659V41.2975H176.14V39.8882L178.723 38.7139L179.898 34.8889H181.642V39.0159H186.843V41.2975H181.642V51.6988C181.642 52.7948 181.9 53.6113 182.414 54.1481C182.951 54.6626 183.633 54.9198 184.461 54.9198Z" fill="black"/>
<path d="M174.076 52.0342C174.076 53.1974 173.785 54.1704 173.204 54.9533C172.622 55.7362 171.795 56.3289 170.721 56.7316C169.647 57.1342 168.372 57.3355 166.896 57.3355C165.643 57.3355 164.558 57.2349 163.641 57.0336C162.747 56.8322 161.953 56.5526 161.259 56.1947V53.5105C161.975 53.8684 162.836 54.204 163.843 54.5171C164.872 54.8079 165.912 54.9533 166.963 54.9533C168.462 54.9533 169.547 54.7184 170.218 54.2487C170.889 53.7566 171.224 53.1079 171.224 52.3026C171.224 51.8553 171.101 51.4526 170.855 51.0947C170.609 50.7369 170.162 50.379 169.513 50.0211C168.887 49.6632 167.981 49.2605 166.795 48.8132C165.632 48.3658 164.637 47.9184 163.809 47.4711C162.982 47.0237 162.344 46.4869 161.897 45.8605C161.449 45.2342 161.226 44.429 161.226 43.4448C161.226 41.9237 161.841 40.7494 163.071 39.9217C164.324 39.0941 165.956 38.6803 167.97 38.6803C169.066 38.6803 170.083 38.7921 171.023 39.0158C171.985 39.2171 172.88 39.5079 173.707 39.8882L172.701 42.2369C172.208 42.0132 171.683 41.8231 171.124 41.6665C170.587 41.4875 170.039 41.3533 169.48 41.2638C168.92 41.152 168.35 41.0961 167.768 41.0961C166.56 41.0961 165.632 41.2974 164.983 41.7C164.357 42.0803 164.044 42.6059 164.044 43.277C164.044 43.7691 164.189 44.1941 164.48 44.552C164.771 44.8875 165.252 45.223 165.923 45.5586C166.616 45.8717 167.533 46.252 168.674 46.6994C169.815 47.1244 170.788 47.5605 171.593 48.0079C172.399 48.4553 173.014 49.0033 173.439 49.652C173.864 50.2783 174.076 51.0724 174.076 52.0342Z" fill="black"/>
<defs>
<linearGradient id="paint0_linear_48_42" x1="44.6673" y1="7.66675" x2="44.6673" y2="41.3334" gradientUnits="userSpaceOnUse">
<stop stop-color="#FFE091"/>
<stop offset="1" stop-color="#FFE091" stop-opacity="0.079167"/>
</linearGradient>
</defs>
</svg>
