<?xml version="1.0" encoding="utf-8"?>
<!-- Generator: Adobe Illustrator 26.4.1, SVG Export Plug-In . SVG Version: 6.00 Build 0)  -->
<svg version="1.1" id="logo" xmlns="http://www.w3.org/2000/svg" xmlns:xlink="http://www.w3.org/1999/xlink" x="0px" y="0px"
	 viewBox="0 0 366 68" style="enable-background:new 0 0 366 68;" xml:space="preserve">
<style type="text/css">
	.st0{fill:#02055a;}
</style>
<g>
	<g>
		<path class="st0" d="M42.5,0.8h-6.9l-17,41.3h12.2l2.3-6h9.4h9.4l2,6h13.7L50.3,0.8H42.5z M42.5,28.4h-6.5l6.5-18.1l0.3-1h0.2
			L49,28.4H42.5z"/>
		<polygon class="st0" points="82.1,23.4 82.2,23.4 96.2,42.1 111.3,42.1 93.5,20 110.1,0.8 95.7,0.8 82.2,17.7 82.1,17.7 82.1,0.8 
			70.1,0.8 70.1,42.1 82.1,42.1 		"/>
		<path class="st0" d="M142.3,21v-0.2c4.9-1.5,7.8-4.4,7.8-9.6c0-7.1-6.2-10.5-14.5-10.5h-3H115V42h17.5h1.3c8,0,17.4-2.1,17.4-11.9
			C151.3,25.1,148.2,22.1,142.3,21z M126.9,8.6h3.4c0.8,0,1.5,0,2.2,0.1c3,0.2,5.6,1,5.6,4c0,2.8-2.6,3.9-5.6,4.3
			c-0.8,0.1-1.6,0.1-2.3,0.1h-3.3V8.6z M132.5,34.2c-0.7,0.1-1.4,0.1-2.1,0.1h-3.5v-9.8h3.6c0.7,0,1.3,0.1,2,0.1
			c3.5,0.2,6.8,1.1,6.8,4.8C139.3,33,136.1,34,132.5,34.2z"/>
		<path class="st0" d="M234.5,4.8c-1.4-0.2-2.9-0.2-4.4-0.2V0.8h-11.9v3.8c-1.5,0-3,0.1-4.4,0.2C204,6.1,197,11.5,197,21.5
			c0,9.8,7,15.3,16.8,16.6c1.4,0.2,2.9,0.2,4.4,0.2v3.8H230v-3.8c1.6,0,3-0.1,4.4-0.2c9.7-1.3,16.7-6.7,16.7-16.6
			C251.2,11.5,244.1,6.1,234.5,4.8z M218.1,29.8c-1.6,0-3.1-0.4-4.4-1c-2.6-1.4-4.4-4-4.4-7.3c0-3.6,1.8-6.1,4.4-7.5
			c1.3-0.6,2.7-1,4.4-1V29.8z M234.5,28.8c-1.3,0.6-2.8,1-4.4,1V13c1.6,0,3.1,0.3,4.4,1c2.6,1.3,4.4,4,4.4,7.5
			C238.8,24.7,237,27.4,234.5,28.8z"/>
		<path class="st0" d="M277.1,42.8c14.7,0,22.5-8.2,22.5-21.3c0-13.3-7.6-21.4-22.5-21.4c-14.7,0-22.5,8.1-22.5,21.4
			C254.6,34.6,262.5,42.8,277.1,42.8z M277.1,8.2c7.3,0,10.2,6,10.2,13.2c0,6.7-2.9,13.2-10.2,13.2c-7.3,0-10.1-6.4-10.1-13.2
			C266.9,14.3,269.8,8.2,277.1,8.2z"/>
		<path class="st0" d="M320.4,0.9c-0.9-0.1-1.9-0.1-3-0.1h-14.2v41.3h11.9V27.6h4.6h0.6c10.8-0.2,17.2-5.1,17.2-13.2
			C337.6,5.7,332.1,1.4,320.4,0.9z M320.4,19.7c-0.7,0.2-1.4,0.2-2.1,0.2h-3.1V8.6h3.1c0.7,0,1.4,0.1,2.1,0.2c3,0.4,5.2,1.9,5.2,5.3
			C325.7,17.7,323.5,19.3,320.4,19.7z"/>
		<path class="st0" d="M184.5,36.2l2.1,6h13.6L182.9,0.8h-7.8h-6.8l-17.1,41.3h12.2l2.4-6h9.3H184.5z M175.1,10.5l0.4-1.2h0.1
			l6.1,19.1h-6.6h-6.6L175.1,10.5z"/>
		<path class="st0" d="M344.5,5.1c0.2-0.2,0.3-0.6,0.3-1c0-0.2,0-0.3-0.1-0.6c-0.1-0.2-0.2-0.5-0.5-0.6c-0.2-0.2-0.5-0.2-0.9-0.3
			h-0.2h-1.4v4.8h0.9V5.6h0.1l0.7,1l0.5,0.8h1.1l-1.3-1.8C344,5.6,344.3,5.5,344.5,5.1z M343.8,4.7c-0.2,0.2-0.3,0.2-0.6,0.2h-0.2
			h-0.5V3.5h0.5h0.2c0.2,0.1,0.4,0.2,0.6,0.2c0.1,0.2,0.1,0.3,0.1,0.5C344,4.4,343.9,4.5,343.8,4.7z"/>
		<path class="st0" d="M346.9,2.8c-0.4-0.7-0.9-1.2-1.6-1.6c-0.6-0.4-1.3-0.6-2-0.6c-0.1-0.1-0.2-0.1-0.2-0.1
			c-0.8,0.1-1.5,0.2-2.2,0.6c-0.6,0.4-1.2,0.9-1.6,1.6c-0.4,0.6-0.5,1.3-0.5,2.1c0,0.8,0.2,1.6,0.5,2.2c0.4,0.6,0.9,1.2,1.6,1.6
			c0.7,0.4,1.4,0.6,2.2,0.6h0.2c0.7,0,1.4-0.2,2-0.6c0.6-0.4,1.2-1,1.6-1.6c0.4-0.6,0.5-1.4,0.5-2.2C347.4,4.2,347.3,3.5,346.9,2.8z
			 M346.2,6.8c-0.3,0.6-0.8,1-1.3,1.3c-0.5,0.2-1,0.4-1.6,0.5h-0.2c-0.6,0-1.2-0.2-1.7-0.5c-0.5-0.3-1-0.8-1.3-1.3
			c-0.3-0.6-0.5-1.1-0.5-1.8c0-0.6,0.2-1.2,0.5-1.7c0.3-0.6,0.8-1,1.3-1.3c0.5-0.3,1.1-0.5,1.7-0.5h0.2c0.6,0,1.1,0.2,1.6,0.5
			c0.5,0.3,1,0.7,1.3,1.3c0.3,0.5,0.5,1.1,0.5,1.7C346.6,5.7,346.5,6.3,346.2,6.8z"/>
	</g>
	<g>
		<path class="st0" d="M31.1,54.4c4.1,0,6.5,1,7,3.4h-3c-0.5-1-1.3-1.4-4-1.4c-3.1,0-4.4,0.7-4.4,2.7v0.5c0,2,1.3,2.7,4.4,2.7
			c2.6,0,3.5-0.5,4-1.4h3c-0.5,2.2-2.7,3.4-7,3.4c-5.1,0-7.4-1.3-7.4-4.9C23.7,55.7,26,54.4,31.1,54.4z"/>
		<path class="st0" d="M42.5,65.8c1.1,0,1.6-0.2,2.2-1.2l0.4-0.6l-6.5-9.4h3.3l4.8,7l4.6-7h2.8l-6.7,10.2c-1.4,2.1-2.3,3-4.5,3h-2.1
			v-2H42.5z"/>
		<path class="st0" d="M66.4,54.6v2h-7.6v2.3h3.6v1.5h-3.6v3.6h-3v-3.6h-1.3v-1.5h1.3v-4.3H66.4z"/>
		<path class="st0" d="M72.1,58.6l6.3-0.1v-0.3c0-1.4-1.2-2-3.7-2c-2.3,0-3.6,0.4-3.8,1.4h-2.9c0.4-2.1,2.5-3.3,6.7-3.3
			c4.5,0,6.7,1.2,6.7,3.8v5.8h-2.9v-1.8c-0.8,1.3-2.8,2.1-5.8,2.1c-3.9,0-5.2-1.1-5.2-2.9C67.5,59.7,68.7,58.6,72.1,58.6z
			 M73.4,62.5c2.8,0,4.9-0.7,4.9-2.4v-0.1L73.1,60c-1.8,0-2.6,0.3-2.6,1.2v0.1C70.5,62.1,71.3,62.5,73.4,62.5z"/>
		<path class="st0" d="M93,58.6l6.3-0.1v-0.3c0-1.4-1.2-2-3.7-2c-2.3,0-3.6,0.4-3.8,1.4h-2.9c0.4-2.1,2.5-3.3,6.7-3.3
			c4.5,0,6.7,1.2,6.7,3.8v5.8h-2.9v-1.8c-0.8,1.3-2.8,2.1-5.8,2.1c-3.9,0-5.2-1.1-5.2-2.9C88.4,59.7,89.6,58.6,93,58.6z M94.4,62.5
			c2.8,0,4.9-0.7,4.9-2.4v-0.1L94,60c-1.8,0-2.6,0.3-2.6,1.2v0.1C91.4,62.1,92.2,62.5,94.4,62.5z"/>
		<path class="st0" d="M107.9,54.6v2c0.9-1.5,2.8-2.2,5.7-2.2c4.1,0,6.6,1.4,6.6,4.9c0,3.5-2.4,4.9-6.6,4.9c-2.8,0-4.6-0.6-5.6-2
			v5.5h-3V54.6H107.9z M117.1,59.1c0-2.1-1.5-2.7-4.6-2.7c-3.1,0-4.6,0.7-4.6,2.7v0.5c0,2,1.5,2.7,4.6,2.7c3,0,4.6-0.6,4.6-2.7V59.1
			z"/>
		<path class="st0" d="M125.4,54.6v3.6h7.7v-3.6h3v9.4h-3v-3.8h-7.7v3.8h-3v-9.4H125.4z"/>
		<path class="st0" d="M142.9,58.6l6.3-0.1v-0.3c0-1.4-1.2-2-3.7-2c-2.3,0-3.6,0.4-3.8,1.4h-2.9c0.4-2.1,2.5-3.3,6.7-3.3
			c4.5,0,6.7,1.2,6.7,3.8v5.8h-2.9v-1.8c-0.8,1.3-2.8,2.1-5.8,2.1c-3.9,0-5.2-1.1-5.2-2.9C138.3,59.7,139.5,58.6,142.9,58.6z
			 M144.2,62.5c2.8,0,4.9-0.7,4.9-2.4v-0.1l-5.2,0.1c-1.8,0-2.6,0.3-2.6,1.2v0.1C141.3,62.1,142.1,62.5,144.2,62.5z"/>
		<path class="st0" d="M153.8,61.7h0.4c1.3,0,1.9-0.6,1.9-3.1v-3.9h11.8v9.4h-3v-7.4h-6v2.1c0,4-1,5.3-4.3,5.3h-0.8V61.7z"/>
		<path class="st0" d="M181.6,54.6v2H174v2.3h3.6v1.5H174v3.6h-3v-3.6h-1.3v-1.5h1.3v-4.3H181.6z"/>
		<path class="st0" d="M187.3,58.6l6.3-0.1v-0.3c0-1.4-1.2-2-3.7-2c-2.3,0-3.6,0.4-3.8,1.4h-2.9c0.4-2.1,2.5-3.3,6.7-3.3
			c4.5,0,6.7,1.2,6.7,3.8v5.8h-2.9v-1.8c-0.8,1.3-2.8,2.1-5.8,2.1c-3.9,0-5.2-1.1-5.2-2.9C182.7,59.7,183.9,58.6,187.3,58.6z
			 M188.6,62.5c2.8,0,4.9-0.7,4.9-2.4v-0.1l-5.2,0.1c-1.8,0-2.6,0.3-2.6,1.2v0.1C185.7,62.1,186.5,62.5,188.6,62.5z"/>
		<path class="st0" d="M202.2,54.6v3.6h7.7v-3.6h3v9.4h-3v-3.8h-7.7v3.8h-3v-9.4H202.2z"/>
		<path class="st0" d="M227.6,54.4c4.1,0,6.5,1,7,3.4h-3c-0.5-1-1.3-1.4-4-1.4c-3.1,0-4.4,0.7-4.4,2.7v0.5c0,2,1.3,2.7,4.4,2.7
			c2.6,0,3.5-0.5,4-1.4h3c-0.5,2.2-2.7,3.4-7,3.4c-5.1,0-7.4-1.3-7.4-4.9C220.2,55.7,222.6,54.4,227.6,54.4z"/>
		<path class="st0" d="M235.2,54.6h3.3l4.7,7.1l4.6-7.1h2.9l-6.1,9.4v3.7h-3v-3.7L235.2,54.6z"/>
		<path class="st0" d="M254.2,61.1c0.1,1,1.6,1.3,4.1,1.3c2.7,0,3.7-0.3,3.7-1.1v-0.2c0-0.7-0.8-1-2.7-1H256v-1.6h3.4
			c1.9,0,2.4-0.3,2.4-0.9v-0.2c0-0.7-0.8-1-3.5-1c-2.6,0-3.9,0.3-4.1,1.2h-3c0.2-2.2,3.1-3.1,7.1-3.1c4.3,0,6.5,0.9,6.5,2.7
			c0,0.8-0.3,1.7-2.2,2c1.5,0.3,2.4,1,2.4,2.3c0,1.8-2,2.9-6.7,2.9c-4.5,0-7.1-0.9-7.2-3.2H254.2z"/>
		<path class="st0" d="M277.9,54.6v2h-7.6v7.4h-3v-9.4H277.9z"/>
		<path class="st0" d="M281.1,50.4c1.2,0,1.8,0.5,1.8,1.3c0,0.8-0.6,1.3-1.8,1.3c-1.2,0-1.8-0.5-1.8-1.3
			C279.3,50.9,280,50.4,281.1,50.4z M282.6,54.6v9.4h-3v-9.4H282.6z"/>
		<path class="st0" d="M284.4,61.7h0.4c1.3,0,1.9-0.6,1.9-3.1v-3.9h11.8v9.4h-3v-7.4h-6v2.1c0,4-1,5.3-4.3,5.3h-0.8V61.7z"/>
		<path class="st0" d="M307.9,54.4c4.4,0,7.1,1.2,7.1,4.7v0.5h-11.3v0.1c0,1.9,1.3,2.7,4.2,2.7c2.3,0,3.5-0.3,4.1-1.3h2.9
			c-0.9,2.4-3.3,3.2-7.1,3.2c-4.6,0-7.2-1.3-7.2-4.9C300.6,55.9,303.3,54.4,307.9,54.4z M303.7,58.2h8.4c-0.1-1.5-1.4-2-4.2-2
			C305.5,56.2,303.9,56.7,303.7,58.2z"/>
		<path class="st0" d="M320.1,54.6v2c0.9-1.5,2.8-2.2,5.7-2.2c4.1,0,6.6,1.4,6.6,4.9c0,3.5-2.4,4.9-6.6,4.9c-2.8,0-4.6-0.6-5.6-2
			v5.5h-3V54.6H320.1z M329.3,59.1c0-2.1-1.5-2.7-4.6-2.7c-3.1,0-4.6,0.7-4.6,2.7v0.5c0,2,1.5,2.7,4.6,2.7c3,0,4.6-0.6,4.6-2.7V59.1
			z"/>
	</g>
</g>
</svg>
