<?xml version="1.0" encoding="UTF-8"?>
<svg xmlns="http://www.w3.org/2000/svg" xmlns:xlink="http://www.w3.org/1999/xlink" width="334px" height="103px" viewBox="0 0 168 52" version="1.1">
<g id="surface1">
<path style=" stroke:none;fill-rule:nonzero;fill:rgb(12.54902%,21.960784%,25.882354%);fill-opacity:1;" d="M 46.980469 12.402344 L 49.445312 12.402344 L 54.375 20.730469 L 54.582031 20.730469 L 59.515625 12.402344 L 61.980469 12.402344 L 55.554688 22.894531 L 55.554688 30.246094 L 53.402344 30.246094 L 53.402344 22.894531 Z M 46.980469 12.402344 "/>
<path style=" stroke:none;fill-rule:nonzero;fill:rgb(12.54902%,21.960784%,25.882354%);fill-opacity:1;" d="M 66.015625 30.523438 C 64.8125 30.523438 63.753906 30.238281 62.847656 29.664062 C 61.945312 29.085938 61.238281 28.28125 60.726562 27.25 C 60.226562 26.214844 59.972656 25.007812 59.972656 23.625 C 59.972656 22.230469 60.226562 21.015625 60.726562 19.972656 C 61.238281 18.933594 61.945312 18.128906 62.847656 17.550781 C 63.753906 16.976562 64.8125 16.691406 66.015625 16.691406 C 67.21875 16.691406 68.273438 16.976562 69.175781 17.550781 C 70.082031 18.128906 70.789062 18.933594 71.292969 19.972656 C 71.800781 21.015625 72.054688 22.230469 72.054688 23.625 C 72.054688 25.007812 71.800781 26.214844 71.292969 27.25 C 70.789062 28.28125 70.082031 29.085938 69.175781 29.664062 C 68.273438 30.238281 67.21875 30.523438 66.015625 30.523438 Z M 66.015625 28.679688 C 66.929688 28.679688 67.679688 28.441406 68.273438 27.972656 C 68.863281 27.5 69.300781 26.882812 69.582031 26.117188 C 69.867188 25.351562 70.007812 24.519531 70.007812 23.625 C 70.007812 22.730469 69.867188 21.898438 69.582031 21.125 C 69.300781 20.351562 68.863281 19.726562 68.273438 19.25 C 67.679688 18.773438 66.929688 18.535156 66.015625 18.535156 C 65.101562 18.535156 64.347656 18.773438 63.757812 19.25 C 63.167969 19.726562 62.730469 20.351562 62.445312 21.125 C 62.164062 21.898438 62.023438 22.730469 62.023438 23.625 C 62.023438 24.519531 62.164062 25.351562 62.445312 26.117188 C 62.730469 26.882812 63.167969 27.5 63.757812 27.972656 C 64.347656 28.441406 65.101562 28.679688 66.015625 28.679688 Z M 66.015625 28.679688 "/>
<path style=" stroke:none;fill-rule:nonzero;fill:rgb(12.54902%,21.960784%,25.882354%);fill-opacity:1;" d="M 75.46875 30.246094 L 75.46875 12.402344 L 77.515625 12.402344 L 77.515625 18.988281 L 77.691406 18.988281 C 77.839844 18.757812 78.050781 18.460938 78.316406 18.101562 C 78.589844 17.734375 78.976562 17.410156 79.480469 17.125 C 79.988281 16.835938 80.675781 16.691406 81.546875 16.691406 C 82.667969 16.691406 83.65625 16.972656 84.511719 17.535156 C 85.371094 18.097656 86.039062 18.898438 86.519531 19.929688 C 87 20.964844 87.238281 22.183594 87.238281 23.589844 C 87.238281 25.007812 87 26.234375 86.519531 27.273438 C 86.039062 28.308594 85.375 29.109375 84.523438 29.679688 C 83.671875 30.242188 82.691406 30.523438 81.582031 30.523438 C 80.722656 30.523438 80.039062 30.382812 79.523438 30.097656 C 79.007812 29.808594 78.613281 29.480469 78.332031 29.113281 C 78.054688 28.742188 77.839844 28.433594 77.691406 28.191406 L 77.449219 28.191406 L 77.449219 30.246094 Z M 77.484375 23.554688 C 77.484375 24.566406 77.628906 25.457031 77.925781 26.230469 C 78.21875 26.996094 78.652344 27.597656 79.21875 28.03125 C 79.785156 28.460938 80.480469 28.679688 81.300781 28.679688 C 82.160156 28.679688 82.875 28.453125 83.445312 28 C 84.023438 27.539062 84.457031 26.921875 84.746094 26.152344 C 85.042969 25.371094 85.191406 24.507812 85.191406 23.554688 C 85.191406 22.613281 85.046875 21.765625 84.757812 21.011719 C 84.472656 20.25 84.042969 19.648438 83.464844 19.207031 C 82.890625 18.761719 82.171875 18.535156 81.300781 18.535156 C 80.46875 18.535156 79.769531 18.75 79.203125 19.171875 C 78.632812 19.589844 78.207031 20.175781 77.917969 20.933594 C 77.628906 21.683594 77.484375 22.554688 77.484375 23.554688 Z M 77.484375 23.554688 "/>
<path style=" stroke:none;fill-rule:nonzero;fill:rgb(12.54902%,21.960784%,25.882354%);fill-opacity:1;" d="M 89.5625 30.246094 L 89.5625 16.863281 L 91.613281 16.863281 L 91.613281 30.246094 Z M 90.605469 14.632812 C 90.207031 14.632812 89.863281 14.496094 89.574219 14.222656 C 89.289062 13.949219 89.148438 13.621094 89.148438 13.238281 C 89.148438 12.855469 89.289062 12.527344 89.574219 12.253906 C 89.863281 11.980469 90.207031 11.84375 90.605469 11.84375 C 91.003906 11.84375 91.347656 11.980469 91.628906 12.253906 C 91.917969 12.527344 92.0625 12.855469 92.0625 13.238281 C 92.0625 13.621094 91.917969 13.949219 91.628906 14.222656 C 91.347656 14.496094 91.003906 14.632812 90.605469 14.632812 Z M 90.605469 14.632812 "/>
<path style=" stroke:none;fill-rule:nonzero;fill:rgb(12.54902%,21.960784%,25.882354%);fill-opacity:1;" d="M 100.5625 30.523438 C 99.453125 30.523438 98.46875 30.242188 97.621094 29.679688 C 96.769531 29.109375 96.105469 28.308594 95.625 27.273438 C 95.144531 26.234375 94.902344 25.007812 94.902344 23.589844 C 94.902344 22.183594 95.144531 20.964844 95.625 19.929688 C 96.105469 18.898438 96.773438 18.097656 97.628906 17.535156 C 98.484375 16.972656 99.476562 16.691406 100.597656 16.691406 C 101.464844 16.691406 102.152344 16.835938 102.65625 17.125 C 103.164062 17.410156 103.550781 17.734375 103.816406 18.101562 C 104.089844 18.460938 104.300781 18.757812 104.453125 18.988281 L 104.625 18.988281 L 104.625 12.402344 L 106.671875 12.402344 L 106.671875 30.246094 L 104.695312 30.246094 L 104.695312 28.191406 L 104.453125 28.191406 C 104.300781 28.433594 104.085938 28.742188 103.808594 29.113281 C 103.53125 29.480469 103.136719 29.808594 102.621094 30.097656 C 102.105469 30.382812 101.417969 30.523438 100.5625 30.523438 Z M 100.839844 28.679688 C 101.664062 28.679688 102.355469 28.460938 102.921875 28.03125 C 103.492188 27.597656 103.921875 26.996094 104.21875 26.230469 C 104.511719 25.457031 104.660156 24.566406 104.660156 23.554688 C 104.660156 22.554688 104.515625 21.683594 104.226562 20.933594 C 103.9375 20.175781 103.507812 19.589844 102.941406 19.171875 C 102.375 18.75 101.671875 18.535156 100.839844 18.535156 C 99.972656 18.535156 99.25 18.761719 98.671875 19.207031 C 98.097656 19.648438 97.667969 20.25 97.378906 21.011719 C 97.09375 21.765625 96.953125 22.613281 96.953125 23.554688 C 96.953125 24.507812 97.097656 25.371094 97.386719 26.152344 C 97.679688 26.921875 98.113281 27.539062 98.6875 28 C 99.265625 28.453125 99.984375 28.679688 100.839844 28.679688 Z M 100.839844 28.679688 "/>
<path style=" stroke:none;fill-rule:nonzero;fill:rgb(12.54902%,21.960784%,25.882354%);fill-opacity:1;" d="M 115.316406 30.523438 C 114.113281 30.523438 113.058594 30.238281 112.148438 29.664062 C 111.246094 29.085938 110.539062 28.28125 110.03125 27.25 C 109.527344 26.214844 109.277344 25.007812 109.277344 23.625 C 109.277344 22.230469 109.527344 21.015625 110.03125 19.972656 C 110.539062 18.933594 111.246094 18.128906 112.148438 17.550781 C 113.058594 16.976562 114.113281 16.691406 115.316406 16.691406 C 116.519531 16.691406 117.574219 16.976562 118.476562 17.550781 C 119.386719 18.128906 120.089844 18.933594 120.59375 19.972656 C 121.105469 21.015625 121.359375 22.230469 121.359375 23.625 C 121.359375 25.007812 121.105469 26.214844 120.59375 27.25 C 120.089844 28.28125 119.386719 29.085938 118.476562 29.664062 C 117.574219 30.238281 116.519531 30.523438 115.316406 30.523438 Z M 115.316406 28.679688 C 116.230469 28.679688 116.984375 28.441406 117.574219 27.972656 C 118.164062 27.5 118.601562 26.882812 118.886719 26.117188 C 119.167969 25.351562 119.308594 24.519531 119.308594 23.625 C 119.308594 22.730469 119.167969 21.898438 118.886719 21.125 C 118.601562 20.351562 118.164062 19.726562 117.574219 19.25 C 116.984375 18.773438 116.230469 18.535156 115.316406 18.535156 C 114.402344 18.535156 113.652344 18.773438 113.058594 19.25 C 112.46875 19.726562 112.035156 20.351562 111.75 21.125 C 111.464844 21.898438 111.324219 22.730469 111.324219 23.625 C 111.324219 24.519531 111.464844 25.351562 111.75 26.117188 C 112.035156 26.882812 112.46875 27.5 113.058594 27.972656 C 113.652344 28.441406 114.402344 28.679688 115.316406 28.679688 Z M 115.316406 28.679688 "/>
<path style=" stroke:none;fill-rule:nonzero;fill:rgb(12.54902%,21.960784%,25.882354%);fill-opacity:1;" d="M 125.445312 35.265625 C 125.097656 35.265625 124.789062 35.234375 124.519531 35.175781 C 124.246094 35.125 124.058594 35.074219 123.953125 35.019531 L 124.472656 33.207031 C 124.972656 33.335938 125.410156 33.382812 125.792969 33.347656 C 126.175781 33.3125 126.515625 33.140625 126.808594 32.832031 C 127.109375 32.53125 127.386719 32.039062 127.632812 31.359375 L 128.015625 30.316406 L 123.085938 16.863281 L 125.308594 16.863281 L 128.988281 27.527344 L 129.125 27.527344 L 132.808594 16.863281 L 135.027344 16.863281 L 129.371094 32.199219 C 129.113281 32.890625 128.800781 33.460938 128.425781 33.914062 C 128.046875 34.371094 127.609375 34.710938 127.113281 34.933594 C 126.621094 35.152344 126.066406 35.265625 125.445312 35.265625 Z M 125.445312 35.265625 "/>
<path style=" stroke:none;fill-rule:nonzero;fill:rgb(12.54902%,21.960784%,25.882354%);fill-opacity:1;" d="M 141.714844 30.523438 C 140.511719 30.523438 139.457031 30.238281 138.546875 29.664062 C 137.644531 29.085938 136.9375 28.28125 136.429688 27.25 C 135.925781 26.214844 135.675781 25.007812 135.675781 23.625 C 135.675781 22.230469 135.925781 21.015625 136.429688 19.972656 C 136.9375 18.933594 137.644531 18.128906 138.546875 17.550781 C 139.457031 16.976562 140.511719 16.691406 141.714844 16.691406 C 142.917969 16.691406 143.972656 16.976562 144.875 17.550781 C 145.785156 18.128906 146.492188 18.933594 146.992188 19.972656 C 147.503906 21.015625 147.757812 22.230469 147.757812 23.625 C 147.757812 25.007812 147.503906 26.214844 146.992188 27.25 C 146.492188 28.28125 145.785156 29.085938 144.875 29.664062 C 143.972656 30.238281 142.917969 30.523438 141.714844 30.523438 Z M 141.714844 28.679688 C 142.628906 28.679688 143.382812 28.441406 143.972656 27.972656 C 144.5625 27.5 145 26.882812 145.285156 26.117188 C 145.566406 25.351562 145.710938 24.519531 145.710938 23.625 C 145.710938 22.730469 145.566406 21.898438 145.285156 21.125 C 145 20.351562 144.5625 19.726562 143.972656 19.25 C 143.382812 18.773438 142.628906 18.535156 141.714844 18.535156 C 140.800781 18.535156 140.050781 18.773438 139.460938 19.25 C 138.867188 19.726562 138.433594 20.351562 138.148438 21.125 C 137.863281 21.898438 137.722656 22.730469 137.722656 23.625 C 137.722656 24.519531 137.863281 25.351562 138.148438 26.117188 C 138.433594 26.882812 138.867188 27.5 139.460938 27.972656 C 140.050781 28.441406 140.800781 28.679688 141.714844 28.679688 Z M 141.714844 28.679688 "/>
<path style=" stroke:none;fill-rule:nonzero;fill:rgb(12.54902%,21.960784%,25.882354%);fill-opacity:1;" d="M 151.171875 30.246094 L 151.171875 12.402344 L 153.21875 12.402344 L 153.21875 18.988281 L 153.390625 18.988281 C 153.542969 18.757812 153.75 18.460938 154.019531 18.101562 C 154.289062 17.734375 154.675781 17.410156 155.179688 17.125 C 155.691406 16.835938 156.378906 16.691406 157.246094 16.691406 C 158.371094 16.691406 159.359375 16.972656 160.214844 17.535156 C 161.070312 18.097656 161.742188 18.898438 162.21875 19.929688 C 162.699219 20.964844 162.941406 22.183594 162.941406 23.589844 C 162.941406 25.007812 162.699219 26.234375 162.21875 27.273438 C 161.742188 28.308594 161.074219 29.109375 160.222656 29.679688 C 159.375 30.242188 158.390625 30.523438 157.28125 30.523438 C 156.425781 30.523438 155.738281 30.382812 155.222656 30.097656 C 154.710938 29.808594 154.3125 29.480469 154.035156 29.113281 C 153.757812 28.742188 153.542969 28.433594 153.390625 28.191406 L 153.148438 28.191406 L 153.148438 30.246094 Z M 153.183594 23.554688 C 153.183594 24.566406 153.332031 25.457031 153.625 26.230469 C 153.921875 26.996094 154.351562 27.597656 154.921875 28.03125 C 155.488281 28.460938 156.183594 28.679688 157.003906 28.679688 C 157.859375 28.679688 158.574219 28.453125 159.148438 28 C 159.726562 27.539062 160.160156 26.921875 160.449219 26.152344 C 160.746094 25.371094 160.890625 24.507812 160.890625 23.554688 C 160.890625 22.613281 160.746094 21.765625 160.457031 21.011719 C 160.175781 20.25 159.742188 19.648438 159.164062 19.207031 C 158.59375 18.761719 157.871094 18.535156 157.003906 18.535156 C 156.171875 18.535156 155.46875 18.75 154.902344 19.171875 C 154.335938 19.589844 153.90625 20.175781 153.617188 20.933594 C 153.328125 21.683594 153.183594 22.554688 153.183594 23.554688 Z M 153.183594 23.554688 "/>
<path style=" stroke:none;fill-rule:nonzero;fill:rgb(12.54902%,21.960784%,25.882354%);fill-opacity:1;" d="M 165.265625 30.246094 L 165.265625 16.863281 L 167.3125 16.863281 L 167.3125 30.246094 Z M 166.308594 14.632812 C 165.90625 14.632812 165.5625 14.496094 165.273438 14.222656 C 164.992188 13.949219 164.847656 13.621094 164.847656 13.238281 C 164.847656 12.855469 164.992188 12.527344 165.273438 12.253906 C 165.5625 11.980469 165.90625 11.84375 166.308594 11.84375 C 166.707031 11.84375 167.046875 11.980469 167.332031 12.253906 C 167.621094 12.527344 167.765625 12.855469 167.765625 13.238281 C 167.765625 13.621094 167.621094 13.949219 167.332031 14.222656 C 167.046875 14.496094 166.707031 14.632812 166.308594 14.632812 Z M 166.308594 14.632812 "/>
<path style=" stroke:none;fill-rule:evenodd;fill:rgb(88.235295%,6.666667%,25.490198%);fill-opacity:1;" d="M 34.503906 26.253906 C 32.34375 42.914062 12.273438 32.765625 4.226562 38.671875 C 7.09375 41.195312 10.765625 41.246094 15.695312 41.296875 C 22.433594 41.347656 31.589844 40.945312 34.554688 40.945312 C 32.894531 49.273438 28.015625 51.394531 20.21875 51.597656 C 16.347656 51.695312 12.023438 51.796875 9.558594 51.394531 C 1.660156 50.082031 -0.753906 40.996094 0.703125 34.230469 C 1.410156 30.140625 4.324219 27.714844 8.800781 26.605469 C 13.429688 25.496094 28.820312 26.253906 34.503906 26.253906 Z M 34.503906 26.253906 "/>
<path style=" stroke:none;fill-rule:evenodd;fill:rgb(88.235295%,6.666667%,25.490198%);fill-opacity:1;" d="M 34.355469 12.773438 C 31.789062 30.695312 7.59375 16.054688 1.761719 28.171875 C -0.453125 19.386719 1.8125 14.84375 8.703125 13.125 C 13.277344 11.964844 28.519531 12.773438 34.355469 12.773438 Z M 34.355469 12.773438 "/>
<path style=" stroke:none;fill-rule:nonzero;fill:rgb(12.54902%,21.960784%,25.882354%);fill-opacity:1;" d="M 140.535156 44.984375 L 140.9375 44.425781 C 141.390625 44.882812 141.945312 45.132812 142.648438 45.132812 C 143 45.132812 143.253906 45.03125 143.453125 44.882812 C 143.65625 44.730469 143.753906 44.476562 143.753906 44.226562 C 143.753906 43.972656 143.65625 43.769531 143.453125 43.621094 C 143.253906 43.46875 143 43.316406 142.699219 43.214844 C 142.398438 43.113281 142.097656 42.964844 141.792969 42.863281 C 141.492188 42.710938 141.242188 42.558594 141.039062 42.308594 C 140.839844 42.054688 140.738281 41.800781 140.738281 41.449219 C 140.738281 40.945312 140.9375 40.539062 141.292969 40.289062 C 141.644531 39.984375 142.097656 39.882812 142.648438 39.882812 C 143.351562 39.882812 143.957031 40.085938 144.410156 40.488281 L 144.058594 41.042969 C 143.90625 40.894531 143.707031 40.742188 143.402344 40.640625 C 143.152344 40.539062 142.902344 40.488281 142.597656 40.488281 C 142.296875 40.488281 141.996094 40.539062 141.792969 40.691406 C 141.59375 40.84375 141.492188 41.042969 141.492188 41.347656 C 141.492188 41.601562 141.59375 41.800781 141.792969 41.953125 C 141.996094 42.105469 142.246094 42.257812 142.546875 42.355469 C 142.851562 42.457031 143.152344 42.609375 143.453125 42.710938 C 143.753906 42.863281 144.007812 43.011719 144.207031 43.265625 C 144.410156 43.519531 144.511719 43.769531 144.511719 44.125 C 144.511719 44.578125 144.308594 44.984375 143.957031 45.285156 C 143.605469 45.589844 143.152344 45.738281 142.597656 45.738281 C 141.742188 45.789062 141.039062 45.539062 140.535156 44.984375 Z M 137.214844 44.328125 L 137.214844 37.710938 L 137.972656 37.710938 L 137.972656 44.125 C 137.972656 44.679688 138.171875 44.984375 138.625 44.984375 C 138.675781 44.984375 138.777344 44.984375 138.828125 44.984375 L 138.828125 45.6875 C 138.726562 45.6875 138.625 45.6875 138.523438 45.6875 C 138.425781 45.6875 138.324219 45.6875 138.222656 45.6875 C 138.121094 45.6875 138.023438 45.640625 137.871094 45.589844 C 137.71875 45.539062 137.621094 45.4375 137.570312 45.335938 C 137.46875 45.234375 137.417969 45.082031 137.316406 44.933594 C 137.265625 44.730469 137.214844 44.527344 137.214844 44.328125 Z M 133.445312 44.328125 L 133.445312 37.710938 L 134.199219 37.710938 L 134.199219 44.125 C 134.199219 44.679688 134.398438 44.984375 134.851562 44.984375 C 134.902344 44.984375 135.003906 44.984375 135.054688 44.984375 L 135.054688 45.6875 C 134.953125 45.6875 134.851562 45.6875 134.753906 45.6875 C 134.652344 45.6875 134.550781 45.6875 134.449219 45.6875 C 134.351562 45.6875 134.25 45.640625 134.097656 45.589844 C 133.949219 45.539062 133.847656 45.4375 133.796875 45.335938 C 133.695312 45.234375 133.644531 45.082031 133.542969 44.933594 C 133.496094 44.730469 133.445312 44.527344 133.445312 44.328125 Z M 125.847656 42.761719 C 125.847656 43.417969 126.050781 43.972656 126.503906 44.425781 C 126.90625 44.882812 127.457031 45.082031 128.0625 45.082031 C 128.664062 45.082031 129.21875 44.882812 129.621094 44.425781 C 130.074219 43.972656 130.277344 43.417969 130.277344 42.761719 C 130.277344 42.105469 130.074219 41.601562 129.621094 41.144531 C 129.167969 40.691406 128.664062 40.488281 128.0625 40.488281 C 127.457031 40.488281 126.90625 40.691406 126.503906 41.144531 C 126.050781 41.601562 125.847656 42.15625 125.847656 42.761719 Z M 125.042969 42.761719 C 125.042969 41.902344 125.347656 41.246094 125.898438 40.640625 C 126.453125 40.085938 127.207031 39.78125 128.011719 39.78125 C 128.816406 39.78125 129.570312 40.085938 130.125 40.640625 C 130.726562 41.195312 130.980469 41.902344 130.980469 42.761719 C 130.980469 43.621094 130.679688 44.328125 130.125 44.882812 C 129.519531 45.4375 128.816406 45.738281 128.011719 45.738281 C 127.207031 45.738281 126.453125 45.4375 125.898438 44.882812 C 125.347656 44.328125 125.042969 43.621094 125.042969 42.761719 Z M 118.65625 41.601562 L 120.515625 41.601562 C 120.96875 41.601562 121.371094 41.449219 121.675781 41.144531 C 121.976562 40.84375 122.125 40.4375 122.125 39.933594 C 122.125 39.632812 122.078125 39.328125 121.925781 39.074219 C 121.773438 38.824219 121.574219 38.671875 121.320312 38.519531 C 121.121094 38.417969 120.769531 38.367188 120.265625 38.367188 L 118.707031 38.367188 L 118.707031 41.601562 Z M 117.902344 45.640625 L 117.902344 37.710938 L 120.316406 37.710938 C 120.96875 37.710938 121.421875 37.761719 121.773438 37.914062 C 122.578125 38.269531 122.933594 38.976562 122.933594 39.882812 C 122.933594 40.4375 122.78125 40.894531 122.53125 41.296875 C 122.226562 41.699219 121.875 41.953125 121.421875 42.105469 C 121.472656 42.15625 121.574219 42.257812 121.625 42.40625 L 123.335938 45.589844 L 122.429688 45.589844 L 120.667969 42.257812 L 118.65625 42.257812 L 118.65625 45.589844 L 117.902344 45.589844 Z M 106.9375 43.417969 C 106.9375 43.871094 107.085938 44.277344 107.441406 44.578125 C 107.792969 44.882812 108.246094 45.03125 108.796875 45.03125 C 110.003906 45.03125 110.660156 44.328125 110.660156 42.863281 L 110.660156 41.699219 L 109 41.699219 C 108.34375 41.699219 107.84375 41.851562 107.488281 42.15625 C 107.136719 42.507812 106.9375 42.914062 106.9375 43.417969 Z M 106.132812 43.46875 C 106.132812 43.011719 106.28125 42.558594 106.535156 42.15625 C 106.785156 41.75 107.136719 41.5 107.589844 41.347656 C 106.886719 41.042969 106.484375 40.4375 106.484375 39.582031 C 106.484375 38.976562 106.683594 38.46875 107.136719 38.117188 C 107.589844 37.761719 108.144531 37.5625 108.847656 37.5625 C 109.148438 37.5625 109.453125 37.613281 109.753906 37.664062 L 109.550781 38.320312 C 109.351562 38.269531 109.097656 38.21875 108.898438 38.21875 C 108.445312 38.21875 108.042969 38.320312 107.742188 38.570312 C 107.441406 38.824219 107.289062 39.125 107.289062 39.582031 C 107.289062 39.730469 107.289062 39.882812 107.339844 40.035156 C 107.390625 40.1875 107.441406 40.339844 107.539062 40.488281 C 107.640625 40.640625 107.84375 40.792969 108.09375 40.894531 C 108.34375 40.996094 108.648438 41.042969 109 41.042969 L 110.660156 41.042969 L 110.660156 39.933594 L 111.414062 39.933594 L 111.414062 41.042969 L 112.46875 41.042969 L 112.46875 41.75 L 111.414062 41.75 L 111.414062 42.914062 C 111.414062 43.871094 111.160156 44.578125 110.707031 45.03125 C 110.257812 45.539062 109.601562 45.738281 108.796875 45.738281 C 107.992188 45.738281 107.390625 45.539062 106.886719 45.082031 C 106.382812 44.679688 106.132812 44.125 106.132812 43.46875 Z M 99.945312 45.640625 L 99.945312 39.933594 L 100.699219 39.933594 L 100.699219 45.640625 Z M 99.945312 38.671875 L 99.945312 37.710938 L 100.800781 37.710938 L 100.800781 38.671875 Z M 92.25 45.640625 L 92.25 37.710938 L 93.003906 37.710938 L 93.003906 40.84375 L 92.953125 41.296875 C 93.105469 40.945312 93.355469 40.640625 93.757812 40.289062 C 94.160156 39.984375 94.664062 39.832031 95.214844 39.832031 C 95.921875 39.832031 96.375 40.035156 96.675781 40.386719 C 96.976562 40.742188 97.128906 41.296875 97.128906 42.054688 L 97.128906 45.6875 L 96.375 45.6875 L 96.375 42.257812 C 96.375 41.699219 96.273438 41.296875 96.121094 40.996094 C 95.972656 40.691406 95.621094 40.539062 95.117188 40.539062 C 94.511719 40.539062 94.007812 40.742188 93.605469 41.195312 C 93.203125 41.652344 93.003906 42.207031 93.003906 42.863281 L 93.003906 45.589844 L 92.25 45.589844 Z M 85.8125 44.984375 L 86.214844 44.425781 C 86.664062 44.882812 87.21875 45.132812 87.921875 45.132812 C 88.277344 45.132812 88.527344 45.03125 88.726562 44.882812 C 88.929688 44.730469 89.03125 44.476562 89.03125 44.226562 C 89.03125 43.972656 88.929688 43.769531 88.726562 43.621094 C 88.527344 43.46875 88.277344 43.316406 87.972656 43.214844 C 87.671875 43.113281 87.371094 42.964844 87.066406 42.863281 C 86.765625 42.710938 86.515625 42.558594 86.3125 42.308594 C 86.113281 42.054688 86.011719 41.800781 86.011719 41.449219 C 86.011719 40.945312 86.214844 40.539062 86.566406 40.289062 C 86.917969 39.984375 87.371094 39.882812 87.921875 39.882812 C 88.628906 39.882812 89.230469 40.085938 89.683594 40.488281 L 89.332031 41.042969 C 89.179688 40.894531 88.980469 40.742188 88.679688 40.640625 C 88.425781 40.539062 88.175781 40.488281 87.875 40.488281 C 87.570312 40.488281 87.269531 40.539062 87.066406 40.691406 C 86.867188 40.84375 86.765625 41.042969 86.765625 41.347656 C 86.765625 41.601562 86.867188 41.800781 87.066406 41.953125 C 87.269531 42.105469 87.519531 42.257812 87.824219 42.355469 C 88.125 42.457031 88.425781 42.609375 88.726562 42.710938 C 89.03125 42.863281 89.28125 43.011719 89.484375 43.265625 C 89.683594 43.519531 89.785156 43.769531 89.785156 44.125 C 89.785156 44.578125 89.582031 44.984375 89.230469 45.285156 C 88.878906 45.589844 88.425781 45.738281 87.875 45.738281 C 87.066406 45.789062 86.363281 45.539062 85.8125 44.984375 Z M 78.617188 43.570312 L 78.617188 39.933594 L 79.371094 39.933594 L 79.371094 43.367188 C 79.371094 43.921875 79.472656 44.328125 79.625 44.628906 C 79.773438 44.933594 80.125 45.082031 80.628906 45.082031 C 81.234375 45.082031 81.738281 44.832031 82.140625 44.375 C 82.542969 43.921875 82.742188 43.367188 82.742188 42.710938 L 82.742188 39.984375 L 83.496094 39.984375 L 83.496094 45.6875 L 82.742188 45.6875 L 82.742188 44.78125 L 82.792969 44.328125 C 82.640625 44.679688 82.390625 45.03125 81.988281 45.335938 C 81.585938 45.640625 81.132812 45.789062 80.53125 45.789062 C 79.875 45.789062 79.371094 45.589844 79.070312 45.234375 C 78.769531 44.882812 78.617188 44.328125 78.617188 43.570312 Z M 71.375 44.78125 L 71.828125 44.175781 C 72.078125 44.425781 72.378906 44.628906 72.785156 44.78125 C 73.136719 44.933594 73.539062 45.03125 73.890625 45.03125 C 74.34375 45.03125 74.746094 44.933594 75.046875 44.679688 C 75.347656 44.425781 75.5 44.125 75.5 43.71875 C 75.5 43.46875 75.449219 43.214844 75.296875 43.011719 C 75.148438 42.8125 74.945312 42.609375 74.746094 42.507812 C 74.492188 42.355469 74.242188 42.257812 73.992188 42.105469 C 73.6875 42.003906 73.4375 41.851562 73.136719 41.699219 C 72.832031 41.550781 72.582031 41.398438 72.378906 41.246094 C 72.128906 41.09375 71.976562 40.894531 71.828125 40.589844 C 71.675781 40.339844 71.625 40.035156 71.625 39.679688 C 71.625 39.023438 71.878906 38.519531 72.332031 38.117188 C 72.785156 37.710938 73.386719 37.511719 74.089844 37.511719 C 74.945312 37.511719 75.648438 37.761719 76.203125 38.269531 L 75.800781 38.925781 C 75.601562 38.722656 75.296875 38.570312 74.996094 38.417969 C 74.695312 38.320312 74.34375 38.21875 74.039062 38.21875 C 73.589844 38.21875 73.1875 38.320312 72.882812 38.570312 C 72.582031 38.824219 72.378906 39.125 72.378906 39.53125 C 72.378906 39.78125 72.429688 40.035156 72.582031 40.238281 C 72.734375 40.4375 72.933594 40.589844 73.136719 40.742188 C 73.386719 40.894531 73.636719 40.996094 73.890625 41.09375 C 74.191406 41.195312 74.441406 41.347656 74.746094 41.5 C 75.046875 41.652344 75.296875 41.800781 75.5 41.953125 C 75.75 42.105469 75.902344 42.355469 76.050781 42.609375 C 76.203125 42.863281 76.253906 43.164062 76.253906 43.519531 C 76.253906 44.175781 76.050781 44.679688 75.601562 45.082031 C 75.148438 45.488281 74.59375 45.6875 73.839844 45.6875 C 72.882812 45.789062 72.027344 45.4375 71.375 44.78125 Z M 71.375 44.78125 "/>
<path style=" stroke:none;fill-rule:evenodd;fill:rgb(12.54902%,21.960784%,25.882354%);fill-opacity:1;" d="M 10.964844 10.097656 C 13.582031 10.097656 15.792969 7.976562 15.792969 5.300781 C 15.792969 2.523438 13.632812 0.453125 10.964844 0.453125 C 8.347656 0.453125 6.1875 2.574219 6.1875 5.300781 C 6.238281 8.027344 8.347656 10.097656 10.964844 10.097656 Z M 10.964844 10.097656 "/>
<path style=" stroke:none;fill-rule:evenodd;fill:rgb(12.54902%,21.960784%,25.882354%);fill-opacity:1;" d="M 23.390625 10.097656 C 26.003906 10.097656 28.21875 7.976562 28.21875 5.300781 C 28.21875 2.523438 26.054688 0.453125 23.390625 0.453125 C 20.773438 0.453125 18.609375 2.574219 18.609375 5.300781 C 18.609375 8.027344 20.773438 10.097656 23.390625 10.097656 Z M 23.390625 10.097656 "/>
</g>
</svg>
