<?xml version="1.0" encoding="UTF-8"?>
<svg xmlns="http://www.w3.org/2000/svg" xmlns:xlink="http://www.w3.org/1999/xlink" width="334px" height="103px" viewBox="0 0 683 285" version="1.1">
<defs>
<clipPath id="clip1">
  <path d="M 2 238 L 682.550781 238 L 682.550781 284.75 L 2 284.75 Z M 2 238 "/>
</clipPath>
</defs>
<g id="surface1">
<g clip-path="url(#clip1)" clip-rule="nonzero">
<path style=" stroke:none;fill-rule:evenodd;fill:rgb(65.098041%,7.450981%,19.215687%);fill-opacity:1;" d="M 677.945312 270.625 L 677.945312 256.300781 L 662.683594 256.300781 L 662.683594 270.625 L 658.132812 270.625 L 658.132812 239.070312 L 662.683594 239.070312 L 662.683594 252.34375 L 677.945312 252.34375 L 677.945312 239.070312 L 682.550781 239.070312 L 682.550781 270.625 Z M 326.640625 270.625 L 322.035156 270.625 L 322.035156 243.027344 L 311.226562 243.027344 L 311.226562 239.070312 L 336.996094 239.070312 L 336.996094 243.027344 L 326.6875 243.027344 L 326.6875 270.625 Z M 139.503906 264.113281 C 141.054688 266.015625 143.355469 266.96875 146.457031 266.96875 C 148.308594 266.96875 149.808594 266.667969 151.0625 266.117188 C 152.261719 265.515625 153.511719 264.613281 154.761719 263.414062 L 157.914062 266.167969 C 157.113281 266.96875 156.3125 267.667969 155.515625 268.269531 C 154.714844 268.871094 153.863281 269.371094 152.960938 269.773438 C 152.0625 270.175781 151.0625 270.472656 149.960938 270.726562 C 148.910156 270.925781 147.707031 271.027344 146.355469 271.027344 C 144.253906 271.027344 142.355469 270.726562 140.652344 270.074219 C 138.953125 269.421875 137.5 268.472656 136.300781 267.117188 C 135.097656 265.816406 134.199219 264.113281 133.546875 262.058594 C 132.898438 260.007812 132.597656 257.601562 132.597656 254.847656 C 132.597656 249.6875 133.746094 245.679688 136.050781 242.875 C 138.351562 240.070312 141.503906 238.667969 145.554688 238.667969 C 149.710938 238.667969 152.910156 240.019531 155.113281 242.726562 C 157.363281 245.429688 158.464844 249.1875 158.464844 253.996094 L 158.464844 256.050781 L 137.199219 256.050781 C 137.152344 259.554688 137.949219 262.210938 139.503906 264.113281 Z M 153.914062 252.644531 C 153.863281 251.992188 153.8125 251.441406 153.761719 250.992188 C 153.710938 250.539062 153.664062 250.089844 153.613281 249.6875 C 153.5625 249.289062 153.460938 248.9375 153.3125 248.585938 C 153.164062 248.234375 153.011719 247.835938 152.863281 247.382812 C 152.160156 245.929688 151.210938 244.78125 149.960938 243.929688 C 148.707031 243.078125 147.207031 242.625 145.507812 242.625 C 143.804688 242.625 142.304688 243.078125 141.054688 243.929688 C 139.800781 244.78125 138.800781 245.929688 138.152344 247.382812 C 137.949219 247.835938 137.800781 248.183594 137.652344 248.585938 C 137.550781 248.9375 137.449219 249.335938 137.402344 249.6875 C 137.351562 250.089844 137.300781 250.488281 137.25 250.992188 C 137.25 251.441406 137.199219 251.992188 137.152344 252.644531 Z M 6.605469 263.414062 L 22.816406 239.121094 L 27.417969 239.121094 L 27.417969 270.675781 L 22.816406 270.675781 L 22.816406 246.230469 L 6.605469 270.675781 L 2.050781 270.675781 L 2.050781 239.121094 L 6.605469 239.121094 Z M 54.339844 252.34375 L 69.601562 252.34375 L 69.601562 239.070312 L 74.203125 239.070312 L 74.203125 270.625 L 69.601562 270.625 L 69.601562 256.300781 L 54.339844 256.300781 L 54.339844 270.625 L 49.785156 270.625 L 49.785156 239.070312 L 54.339844 239.070312 Z M 116.984375 243.078125 L 106.679688 243.078125 L 106.679688 270.675781 L 102.074219 270.675781 L 102.074219 243.078125 L 91.265625 243.078125 L 91.265625 239.121094 L 117.035156 239.121094 L 117.035156 243.078125 Z M 183.734375 242.824219 C 185.035156 241.222656 186.4375 240.121094 187.835938 239.570312 C 189.238281 239.019531 190.839844 238.71875 192.640625 238.71875 C 194.242188 238.71875 195.742188 238.96875 197.042969 239.46875 C 198.34375 239.972656 199.445312 240.621094 200.296875 241.472656 C 201.046875 242.226562 201.699219 243.125 202.199219 244.179688 C 202.699219 245.179688 203.097656 246.28125 203.398438 247.433594 C 203.699219 248.585938 203.847656 249.789062 204 251.039062 C 204.097656 252.292969 204.148438 253.59375 204.148438 254.847656 C 204.148438 257.402344 203.898438 259.90625 203.398438 262.261719 C 202.898438 264.613281 201.898438 266.617188 200.296875 268.269531 C 199.445312 269.121094 198.34375 269.824219 197.042969 270.273438 C 195.742188 270.773438 194.242188 271.027344 192.640625 271.027344 C 190.890625 271.027344 189.289062 270.726562 187.886719 270.175781 C 186.4375 269.621094 185.085938 268.519531 183.734375 266.917969 L 183.734375 284.75 L 179.132812 284.75 L 179.132812 239.070312 L 183.734375 239.070312 Z M 183.984375 259.355469 C 184.136719 260.808594 184.535156 262.109375 185.085938 263.210938 C 185.6875 264.3125 186.488281 265.214844 187.488281 265.917969 C 188.488281 266.617188 189.890625 266.917969 191.640625 266.917969 C 193.339844 266.917969 194.742188 266.566406 195.792969 265.917969 C 196.84375 265.214844 197.644531 264.3125 198.195312 263.210938 C 198.746094 262.109375 199.097656 260.808594 199.296875 259.355469 C 199.445312 257.902344 199.546875 256.398438 199.546875 254.847656 C 199.546875 253.292969 199.445312 251.792969 199.296875 250.339844 C 199.144531 248.886719 198.746094 247.585938 198.195312 246.484375 C 197.644531 245.378906 196.84375 244.480469 195.792969 243.777344 C 194.742188 243.078125 193.390625 242.777344 191.640625 242.777344 C 189.890625 242.777344 188.488281 243.125 187.488281 243.777344 C 186.488281 244.480469 185.6875 245.378906 185.085938 246.484375 C 184.484375 247.585938 184.136719 248.886719 183.984375 250.339844 C 183.835938 251.792969 183.734375 253.292969 183.734375 254.847656 C 183.734375 256.398438 183.835938 257.902344 183.984375 259.355469 Z M 229.46875 252.34375 L 244.730469 252.34375 L 244.730469 239.070312 L 249.332031 239.070312 L 249.332031 270.625 L 244.730469 270.625 L 244.730469 256.300781 L 229.46875 256.300781 L 229.46875 270.625 L 224.914062 270.625 L 224.914062 239.070312 L 229.46875 239.070312 Z M 282.957031 238.71875 C 287.109375 238.71875 290.3125 240.070312 292.515625 242.777344 C 294.765625 245.480469 295.867188 249.238281 295.867188 254.046875 L 295.867188 256.097656 L 274.601562 256.097656 C 274.601562 259.554688 275.402344 262.261719 276.953125 264.164062 C 278.503906 266.066406 280.804688 267.019531 283.90625 267.019531 C 285.757812 267.019531 287.261719 266.71875 288.511719 266.167969 C 289.710938 265.566406 290.964844 264.664062 292.214844 263.460938 L 295.367188 266.21875 C 294.566406 267.019531 293.765625 267.71875 292.964844 268.320312 C 292.164062 268.921875 291.3125 269.421875 290.414062 269.824219 C 289.511719 270.222656 288.511719 270.523438 287.410156 270.773438 C 286.359375 270.976562 285.160156 271.074219 283.808594 271.074219 C 281.707031 271.074219 279.804688 270.773438 278.105469 270.125 C 276.402344 269.472656 274.953125 268.519531 273.75 267.167969 C 272.550781 265.867188 271.648438 264.164062 271 262.109375 C 270.347656 260.054688 270.046875 257.652344 270.046875 254.898438 C 270.046875 249.738281 271.199219 245.730469 273.5 242.925781 C 275.75 240.121094 278.902344 238.71875 282.957031 238.71875 Z M 291.3125 252.644531 C 291.261719 251.992188 291.214844 251.441406 291.164062 250.992188 C 291.113281 250.539062 291.0625 250.089844 291.011719 249.6875 C 290.964844 249.289062 290.863281 248.9375 290.710938 248.585938 C 290.5625 248.234375 290.414062 247.835938 290.261719 247.382812 C 289.5625 245.929688 288.609375 244.78125 287.359375 243.929688 C 286.109375 243.078125 284.609375 242.625 282.90625 242.625 C 281.207031 242.625 279.703125 243.078125 278.453125 243.929688 C 277.203125 244.78125 276.203125 245.929688 275.550781 247.382812 C 275.351562 247.835938 275.203125 248.183594 275.050781 248.585938 C 274.953125 248.9375 274.851562 249.335938 274.800781 249.6875 C 274.75 250.089844 274.699219 250.488281 274.652344 250.992188 C 274.652344 251.441406 274.601562 251.992188 274.550781 252.644531 Z M 368.320312 255.5 L 350.757812 255.5 L 350.757812 251.191406 L 368.320312 251.191406 Z M 405.148438 260.308594 L 415.703125 239.070312 L 420.257812 239.070312 L 420.257812 270.625 L 415.652344 270.625 L 415.652344 248.183594 L 406.898438 265.617188 L 403.394531 265.617188 L 394.488281 248.183594 L 394.488281 270.625 L 389.933594 270.625 L 389.933594 239.070312 L 394.488281 239.070312 Z M 451.179688 252.644531 L 460.585938 252.644531 L 460.585938 249.636719 C 460.585938 247.332031 459.988281 245.582031 458.785156 244.429688 C 457.585938 243.277344 455.484375 242.675781 452.53125 242.675781 C 450.53125 242.675781 448.929688 242.976562 447.777344 243.527344 C 446.628906 244.078125 445.578125 245.03125 444.574219 246.332031 L 441.421875 243.425781 C 442.773438 241.574219 444.324219 240.320312 446.078125 239.671875 C 447.828125 239.019531 449.980469 238.667969 452.582031 238.667969 C 456.835938 238.667969 460.035156 239.570312 462.089844 241.375 C 464.140625 243.175781 465.191406 245.78125 465.191406 249.1875 L 465.191406 270.625 L 460.585938 270.625 L 460.585938 267.621094 C 459.335938 268.871094 458.035156 269.722656 456.683594 270.273438 C 455.332031 270.773438 453.582031 271.027344 451.480469 271.027344 C 449.277344 271.027344 447.527344 270.824219 446.226562 270.375 C 444.925781 269.921875 443.675781 269.222656 442.574219 268.121094 C 441.773438 267.367188 441.171875 266.417969 440.773438 265.265625 C 440.371094 264.113281 440.171875 262.960938 440.171875 261.710938 C 440.171875 258.902344 441.121094 256.648438 442.972656 255.046875 C 444.925781 253.445312 447.628906 252.644531 451.179688 252.644531 Z M 446.425781 265.714844 C 447.578125 266.566406 449.429688 267.019531 451.980469 267.019531 C 453.28125 267.019531 454.53125 266.917969 455.683594 266.667969 C 456.835938 266.417969 457.933594 265.867188 458.9375 264.914062 C 459.988281 263.914062 460.539062 262.058594 460.539062 259.457031 L 460.539062 256.050781 L 451.832031 256.050781 C 447.078125 256.050781 444.726562 257.902344 444.726562 261.609375 C 444.726562 263.511719 445.277344 264.863281 446.425781 265.714844 Z M 507.570312 243.078125 L 492.210938 243.078125 L 492.210938 270.675781 L 487.605469 270.675781 L 487.605469 239.121094 L 507.621094 239.121094 L 507.621094 243.078125 Z M 532.738281 252.644531 L 542.148438 252.644531 L 542.148438 249.636719 C 542.148438 247.332031 541.546875 245.582031 540.34375 244.429688 C 539.144531 243.277344 537.042969 242.675781 534.089844 242.675781 C 532.089844 242.675781 530.488281 242.976562 529.335938 243.527344 C 528.1875 244.078125 527.136719 245.03125 526.136719 246.332031 L 522.984375 243.425781 C 524.332031 241.574219 525.886719 240.320312 527.636719 239.671875 C 529.386719 239.019531 531.539062 238.667969 534.140625 238.667969 C 538.394531 238.667969 541.597656 239.570312 543.648438 241.375 C 545.699219 243.175781 546.75 245.78125 546.75 249.1875 L 546.75 270.625 L 542.148438 270.625 L 542.148438 267.621094 C 540.894531 268.871094 539.59375 269.722656 538.242188 270.273438 C 536.894531 270.773438 535.140625 271.027344 533.039062 271.027344 C 530.839844 271.027344 529.085938 270.824219 527.785156 270.375 C 526.484375 269.921875 525.234375 269.222656 524.132812 268.121094 C 523.332031 267.367188 522.734375 266.417969 522.332031 265.265625 C 521.933594 264.113281 521.730469 262.960938 521.730469 261.710938 C 521.730469 258.902344 522.683594 256.648438 524.535156 255.046875 C 526.484375 253.445312 529.1875 252.644531 532.738281 252.644531 Z M 527.988281 265.714844 C 529.136719 266.566406 530.988281 267.019531 533.539062 267.019531 C 534.839844 267.019531 536.09375 266.917969 537.242188 266.667969 C 538.394531 266.417969 539.496094 265.867188 540.496094 264.914062 C 541.546875 263.914062 542.097656 262.058594 542.097656 259.457031 L 542.097656 256.050781 L 533.339844 256.050781 C 528.585938 256.050781 526.234375 257.902344 526.234375 261.609375 C 526.234375 263.511719 526.835938 264.863281 527.988281 265.714844 Z M 571.867188 266.21875 C 573.269531 266.71875 574.921875 266.96875 576.921875 266.96875 C 577.871094 266.96875 578.824219 266.867188 579.722656 266.617188 C 580.675781 266.367188 581.527344 266.015625 582.277344 265.566406 C 583.027344 265.113281 583.675781 264.515625 584.128906 263.8125 C 584.578125 263.113281 584.828125 262.359375 584.828125 261.507812 C 584.828125 259.707031 584.226562 258.402344 583.027344 257.550781 C 581.824219 256.699219 580.273438 256.25 578.375 256.25 L 573.769531 256.25 L 573.769531 252.441406 L 578.421875 252.441406 C 580.175781 252.441406 581.574219 251.992188 582.675781 251.140625 C 583.777344 250.238281 584.328125 249.035156 584.328125 247.382812 C 584.328125 245.78125 583.675781 244.527344 582.425781 243.777344 C 581.125 242.976562 579.425781 242.574219 577.222656 242.574219 C 574.121094 242.574219 571.269531 243.476562 568.765625 245.230469 L 566.113281 242.175781 C 567.867188 240.921875 569.667969 240.070312 571.570312 239.519531 C 573.46875 239.019531 575.472656 238.769531 577.671875 238.769531 C 579.222656 238.769531 580.675781 238.96875 582.027344 239.320312 C 583.378906 239.671875 584.578125 240.222656 585.578125 240.972656 C 586.578125 241.722656 587.378906 242.574219 587.929688 243.675781 C 588.53125 244.730469 588.78125 245.980469 588.78125 247.332031 C 588.78125 248.9375 588.332031 250.339844 587.480469 251.589844 C 586.628906 252.84375 585.378906 253.796875 583.777344 254.394531 C 585.429688 254.898438 586.78125 255.847656 587.78125 257.152344 C 588.78125 258.453125 589.28125 260.054688 589.28125 261.808594 C 589.28125 263.210938 588.980469 264.515625 588.332031 265.667969 C 587.679688 266.816406 586.828125 267.769531 585.730469 268.570312 C 584.628906 269.371094 583.378906 269.972656 581.925781 270.375 C 580.476562 270.824219 578.972656 271.027344 577.371094 271.027344 C 574.820312 271.027344 572.519531 270.726562 570.566406 270.074219 C 568.566406 269.421875 566.664062 268.269531 564.761719 266.566406 L 567.664062 263.5625 C 569.117188 264.765625 570.519531 265.714844 571.867188 266.21875 Z M 614.898438 263.414062 L 631.113281 239.121094 L 635.714844 239.121094 L 635.714844 270.675781 L 631.113281 270.675781 L 631.113281 246.230469 L 614.898438 270.675781 L 610.347656 270.675781 L 610.347656 239.121094 L 614.898438 239.121094 Z M 614.898438 263.414062 "/>
</g>
<path style=" stroke:none;fill-rule:nonzero;fill:rgb(65.098041%,7.450981%,19.215687%);fill-opacity:1;" d="M 246.550781 70.242188 C 246.550781 67.964844 248.445312 66.140625 250.652344 66.140625 L 336.984375 65.984375 C 339.261719 65.984375 341.160156 67.8125 341.160156 70.09375 L 341.160156 82.945312 C 341.160156 85.222656 339.945312 88.496094 338.578125 90.242188 L 278.214844 166.132812 C 276.769531 167.878906 277.53125 169.402344 279.734375 169.402344 L 337.210938 169.402344 C 339.488281 169.402344 341.3125 171.226562 341.3125 173.507812 L 341.3125 187.425781 C 341.3125 189.628906 339.488281 191.53125 337.210938 191.53125 L 247.917969 191.53125 C 245.640625 191.53125 243.816406 189.628906 243.816406 187.425781 L 243.816406 173.507812 C 243.816406 171.226562 244.957031 167.960938 246.324219 166.132812 L 306.003906 91.460938 C 307.449219 89.710938 306.6875 88.265625 304.484375 88.265625 L 250.652344 88.417969 C 248.445312 88.417969 246.550781 86.59375 246.550781 84.3125 Z M 126.9375 111.703125 C 127.855469 114.523438 130.601562 116.109375 133.058594 115.308594 L 209.386719 90.472656 C 211.917969 89.648438 213.210938 86.75 212.296875 83.929688 L 207.882812 70.332031 C 206.992188 67.585938 204.222656 65.925781 201.691406 66.75 L 125.363281 91.585938 C 122.90625 92.386719 121.636719 95.359375 122.527344 98.109375 Z M 112.238281 131.851562 C 109.84375 133.59375 109.1875 136.703125 110.707031 138.792969 L 157.878906 203.820312 C 159.441406 205.972656 162.597656 206.308594 164.992188 204.566406 L 176.542969 196.164062 C 178.875 194.464844 179.59375 191.3125 178.03125 189.160156 L 130.855469 124.132812 C 129.335938 122.042969 126.121094 121.75 123.789062 123.449219 Z M 88.792969 123.644531 C 86.398438 121.90625 83.242188 122.242188 81.726562 124.332031 L 34.550781 189.355469 C 32.988281 191.511719 33.644531 194.617188 36.039062 196.359375 L 47.585938 204.765625 C 49.921875 206.460938 53.136719 206.171875 54.699219 204.015625 L 101.875 138.992188 C 103.390625 136.902344 102.675781 133.746094 100.339844 132.046875 Z M 90.050781 98.304688 C 90.964844 95.484375 89.671875 92.585938 87.21875 91.785156 L 10.886719 66.945312 C 8.359375 66.125 5.609375 67.710938 4.695312 70.53125 L 0.285156 84.125 C 0.0898438 84.726562 -0.00390625 85.339844 0 85.9375 C 0.0078125 88.070312 1.21875 90.027344 3.191406 90.667969 L 79.523438 115.507812 C 81.976562 116.304688 84.75 114.648438 85.640625 111.902344 Z M 113.417969 89.878906 C 116.378906 89.878906 118.734375 87.75 118.734375 85.164062 L 118.734375 4.792969 C 118.734375 2.128906 116.378906 0 113.417969 0 L 99.140625 0 C 96.257812 0 93.828125 2.128906 93.828125 4.792969 L 93.828125 85.164062 C 93.828125 87.75 96.257812 89.878906 99.140625 89.878906 Z M 657.917969 191.53125 C 655.640625 191.53125 653.207031 189.78125 652.527344 187.652344 L 646.984375 169.707031 C 646.296875 167.5 643.867188 165.753906 641.664062 165.753906 L 603.550781 165.753906 C 601.273438 165.753906 598.84375 167.5 598.15625 169.632812 L 592.164062 187.652344 C 591.476562 189.78125 589.046875 191.53125 586.769531 191.53125 L 567.480469 191.53125 C 565.203125 191.53125 563.988281 189.855469 564.75 187.652344 L 606.738281 69.863281 C 607.5 67.734375 610.007812 65.984375 612.285156 65.984375 L 633.617188 65.984375 C 635.902344 65.984375 638.402344 67.734375 639.085938 69.863281 L 680.773438 187.652344 C 680.921875 188.085938 681 188.503906 681 188.890625 C 680.992188 190.421875 679.851562 191.53125 678.035156 191.53125 Z M 607.878906 140.203125 C 607.121094 142.410156 608.410156 144.15625 610.6875 144.15625 L 634.300781 144.15625 C 636.582031 144.15625 637.871094 142.332031 637.1875 140.203125 L 624.050781 98.683594 C 623.367188 96.554688 622.230469 96.554688 621.46875 98.683594 Z M 531.265625 187.425781 C 531.265625 189.707031 529.441406 191.53125 527.164062 191.53125 L 508.941406 191.53125 C 506.660156 191.53125 504.839844 189.707031 504.839844 187.425781 L 504.839844 92.449219 C 504.839844 90.167969 502.941406 88.339844 500.660156 88.339844 L 471.277344 88.339844 C 469.078125 88.339844 467.179688 86.441406 467.179688 84.234375 L 467.179688 70.09375 C 467.179688 67.886719 469.078125 65.984375 471.277344 65.984375 L 564.597656 65.984375 C 566.875 65.984375 568.695312 67.886719 568.695312 70.09375 L 568.695312 84.234375 C 568.695312 86.441406 566.875 88.339844 564.597656 88.339844 L 535.367188 88.339844 C 533.160156 88.339844 531.265625 90.167969 531.265625 92.449219 Z M 440.761719 115.03125 C 442.964844 115.03125 444.859375 116.855469 444.859375 119.140625 L 444.859375 132.671875 C 444.859375 134.957031 442.960938 136.78125 440.761719 136.78125 L 388.214844 136.78125 C 385.941406 136.78125 384.042969 138.683594 384.042969 140.964844 L 384.042969 164.917969 C 384.042969 167.195312 385.941406 169.097656 388.214844 169.097656 L 446.230469 169.097656 C 448.507812 169.097656 450.328125 170.921875 450.328125 173.207031 L 450.328125 187.425781 C 450.328125 189.707031 448.507812 191.53125 446.230469 191.53125 L 362.554688 191.53125 C 360.351562 191.53125 358.453125 189.707031 358.453125 187.425781 L 358.453125 70.09375 C 358.453125 67.886719 360.351562 65.984375 362.554688 65.984375 L 446.152344 65.984375 C 448.429688 65.984375 450.253906 67.886719 450.253906 70.09375 L 450.253906 84.234375 C 450.253906 86.441406 448.429688 88.339844 446.152344 88.339844 L 388.214844 88.339844 C 385.941406 88.339844 384.042969 90.167969 384.042969 92.449219 L 384.042969 110.851562 C 384.042969 113.132812 385.941406 115.03125 388.214844 115.03125 Z M 440.761719 115.03125 "/>
</g>
</svg>
